<svg width="27" height="8" viewBox="0 0 27 8" fill="none" xmlns="http://www.w3.org/2000/svg">
<path d="M26.3848 3.47266V3.70703C26.3848 4.22656 26.3047 4.69531 26.1445 5.11328C25.9844 5.53125 25.7578 5.88867 25.4648 6.18555C25.1719 6.47852 24.8262 6.70312 24.4277 6.85938C24.0293 7.01562 23.5918 7.09375 23.1152 7.09375C22.6309 7.09375 22.1875 7.01562 21.7852 6.85938C21.3867 6.70312 21.041 6.47852 20.748 6.18555C20.4551 5.88867 20.2285 5.53125 20.0684 5.11328C19.9082 4.69531 19.8281 4.22656 19.8281 3.70703V3.47266C19.8281 2.94922 19.9062 2.48047 20.0625 2.06641C20.2227 1.64844 20.4473 1.29102 20.7363 0.994141C21.0293 0.697266 21.375 0.470703 21.7734 0.314453C22.1758 0.158203 22.6191 0.0800781 23.1035 0.0800781C23.5801 0.0800781 24.0176 0.158203 24.416 0.314453C24.8145 0.470703 25.1602 0.697266 25.4531 0.994141C25.75 1.29102 25.9785 1.64844 26.1387 2.06641C26.3027 2.48047 26.3848 2.94922 26.3848 3.47266ZM24.3926 3.70703V3.4668C24.3926 3.16602 24.3633 2.90039 24.3047 2.66992C24.2461 2.43555 24.1602 2.23828 24.0469 2.07812C23.9375 1.91797 23.8027 1.79688 23.6426 1.71484C23.4863 1.62891 23.3066 1.58594 23.1035 1.58594C22.8887 1.58594 22.6992 1.62891 22.5352 1.71484C22.375 1.79688 22.2422 1.91797 22.1367 2.07812C22.0312 2.23828 21.9512 2.43555 21.8965 2.66992C21.8457 2.90039 21.8203 3.16602 21.8203 3.4668V3.70703C21.8203 4 21.8457 4.26367 21.8965 4.49805C21.9512 4.72852 22.0332 4.92578 22.1426 5.08984C22.252 5.25391 22.3867 5.37891 22.5469 5.46484C22.7109 5.55078 22.9004 5.59375 23.1152 5.59375C23.3145 5.59375 23.4922 5.55078 23.6484 5.46484C23.8086 5.37891 23.9434 5.25391 24.0527 5.08984C24.1621 4.92578 24.2461 4.72852 24.3047 4.49805C24.3633 4.26367 24.3926 4 24.3926 3.70703Z" fill="black"/>
<path d="M19.2656 3.23828V6.19141C19.1289 6.32031 18.9238 6.45508 18.6504 6.5957C18.377 6.73633 18.0391 6.85547 17.6367 6.95312C17.2383 7.04688 16.7773 7.09375 16.2539 7.09375C15.7578 7.09375 15.3086 7.02148 14.9062 6.87695C14.5039 6.73242 14.1582 6.51758 13.8691 6.23242C13.584 5.94727 13.3652 5.59766 13.2129 5.18359C13.0605 4.76953 12.9844 4.29297 12.9844 3.75391V3.42578C12.9844 2.88672 13.0645 2.41016 13.2246 1.99609C13.3887 1.57812 13.6152 1.22656 13.9043 0.941406C14.1934 0.65625 14.5293 0.441406 14.9121 0.296875C15.2988 0.148438 15.7168 0.0742188 16.166 0.0742188C16.873 0.0742188 17.4453 0.177734 17.8828 0.384766C18.3203 0.591797 18.6484 0.878906 18.8672 1.24609C19.0859 1.61328 19.2168 2.03711 19.2598 2.51758H17.3672C17.3359 2.29883 17.2773 2.12305 17.1914 1.99023C17.1094 1.85352 16.9922 1.75391 16.8398 1.69141C16.6875 1.62891 16.4883 1.59766 16.2422 1.59766C16.0664 1.59766 15.9004 1.63281 15.7441 1.70312C15.5918 1.76953 15.457 1.87695 15.3398 2.02539C15.2227 2.16992 15.1309 2.35742 15.0645 2.58789C14.998 2.81445 14.9648 3.08984 14.9648 3.41406V3.75391C14.9648 4.06641 14.9922 4.33789 15.0469 4.56836C15.1016 4.79883 15.1855 4.98828 15.2988 5.13672C15.416 5.28516 15.5664 5.39648 15.75 5.4707C15.9375 5.54102 16.1602 5.57617 16.418 5.57617C16.6289 5.57617 16.8086 5.55664 16.957 5.51758C17.1055 5.47461 17.2109 5.43359 17.2734 5.39453V4.55664H16.1016V3.23828H19.2656Z" fill="black"/>
<path d="M12.334 3.47266V3.70703C12.334 4.22656 12.2539 4.69531 12.0938 5.11328C11.9336 5.53125 11.707 5.88867 11.4141 6.18555C11.1211 6.47852 10.7754 6.70312 10.377 6.85938C9.97852 7.01562 9.54102 7.09375 9.06445 7.09375C8.58008 7.09375 8.13672 7.01562 7.73438 6.85938C7.33594 6.70312 6.99023 6.47852 6.69727 6.18555C6.4043 5.88867 6.17773 5.53125 6.01758 5.11328C5.85742 4.69531 5.77734 4.22656 5.77734 3.70703V3.47266C5.77734 2.94922 5.85547 2.48047 6.01172 2.06641C6.17188 1.64844 6.39648 1.29102 6.68555 0.994141C6.97852 0.697266 7.32422 0.470703 7.72266 0.314453C8.125 0.158203 8.56836 0.0800781 9.05273 0.0800781C9.5293 0.0800781 9.9668 0.158203 10.3652 0.314453C10.7637 0.470703 11.1094 0.697266 11.4023 0.994141C11.6992 1.29102 11.9277 1.64844 12.0879 2.06641C12.252 2.48047 12.334 2.94922 12.334 3.47266ZM10.3418 3.70703V3.4668C10.3418 3.16602 10.3125 2.90039 10.2539 2.66992C10.1953 2.43555 10.1094 2.23828 9.99609 2.07812C9.88672 1.91797 9.75195 1.79688 9.5918 1.71484C9.43555 1.62891 9.25586 1.58594 9.05273 1.58594C8.83789 1.58594 8.64844 1.62891 8.48438 1.71484C8.32422 1.79688 8.19141 1.91797 8.08594 2.07812C7.98047 2.23828 7.90039 2.43555 7.8457 2.66992C7.79492 2.90039 7.76953 3.16602 7.76953 3.4668V3.70703C7.76953 4 7.79492 4.26367 7.8457 4.49805C7.90039 4.72852 7.98242 4.92578 8.0918 5.08984C8.20117 5.25391 8.33594 5.37891 8.49609 5.46484C8.66016 5.55078 8.84961 5.59375 9.06445 5.59375C9.26367 5.59375 9.44141 5.55078 9.59766 5.46484C9.75781 5.37891 9.89258 5.25391 10.002 5.08984C10.1113 4.92578 10.1953 4.72852 10.2539 4.49805C10.3125 4.26367 10.3418 4 10.3418 3.70703Z" fill="black"/>
<path d="M5.42578 5.48242V7H1.69922V5.48242H5.42578ZM2.45508 0.173828V7H0.474609V0.173828H2.45508Z" fill="black"/>
</svg>
